# xmcd
#
# Track frame offsets:
#	150
#	21901
#	42423
#	59070
#	70709
#	88979
#	105115
#	124242
#	142788
#	158242
#	169867
#	185729
#	202237
#	219167
#	238699
#	256177
#	275233
#	289857
#	305871
#	328671
#
# Disc length: 4670 seconds
#
# Revision: 1
# Processed by: cddbd v1.5.2PL0 Copyright (c) Steve Scherf et al.
# Submitted via: audiograbber 1.83.01
#
DISCID=39123c14
DTITLE=Variuos - Honky Tonk Country
DYEAR=1900
DGENRE=Country
TTITLE0=Tim McGraw - Live Like You Were Dying
TTITLE1=Dixie Chicks - Goodbye Earl
TTITLE2=Gretchen Wilson - Redneck Woman
TTITLE3=Alan Jackson - Chattahoochee
TTITLE4=Toby Keith - I Love This Bar
TTITLE5=Blake Shelton - Some Beach
TTITLE6=Hank Williams Jr - Family Tradition
TTITLE7=Joe Jackson - Take It Like A Man
TTITLE8=Faith Hill - Take Me As I'am
TTITLE9=Randy Travis - King Of The Road
TTITLE10=Rascal Flatts - Feels Like Today
TTITLE11=Kenny Chesney - No Shoes,No Shirt,No Problems
TTITLE12=Shania Twain - Love Get's Me Everytime
TTITLE13=Tim McGraw - She's My Kind Of Rain
TTITLE14=Terri Clark - Three Mississippi
TTITLE15=Big and Rich - Big Time
TTITLE16=Tracy Byrd - Ten Rounds With Jose Cuervo
TTITLE17=Toby Keith - Beer For My Horses
TTITLE18=Lee Ann Womack - I Hope You Dance
TTITLE19=Dixie Chicks - Travelin' Soldier
EXTD=
EXTT0=
EXTT1=
EXTT2=
EXTT3=
EXTT4=
EXTT5=
EXTT6=
EXTT7=
EXTT8=
EXTT9=
EXTT10=
EXTT11=
EXTT12=
EXTT13=
EXTT14=
EXTT15=
EXTT16=
EXTT17=
EXTT18=
EXTT19=
PLAYORDER=
